<?xml version="1.0" encoding="UTF-8"?>
<svg id="Camada_2" data-name="Camada 2" xmlns="http://www.w3.org/2000/svg" viewBox="0 0 119.95 150.95">
  <defs>
    <style>
      .cls-1 {
        fill: #c059e7;
      }

      .cls-2 {
        fill: none;
        stroke: #c059e7;
        stroke-miterlimit: 10;
        stroke-width: 10px;
      }
    </style>
  </defs>
  <g id="Camada_1-2" data-name="Camada 1">
    <g>
      <path class="cls-2" d="M89.26,5H30.69c-14.19,0-25.69,11.5-25.69,25.69v61.9c0,14.19,11.5,25.69,25.69,25.69h6.77v24.52c.41.67,1.42,2.09,3.27,2.77,2.65.98,5.9.05,8.18-2.37,8.86-8.31,17.72-16.61,26.58-24.92h13.78c14.19,0,25.69-11.5,25.69-25.69V30.69c0-14.19-11.5-25.69-25.69-25.69Z"/>
      <g>
        <polygon class="cls-1" points="10.33 55.34 28.39 55.34 50.01 33.48 76.61 33.48 76.61 42.51 55 42.51 32.9 64.6 10.33 64.6 10.33 55.34"/>
        <circle class="cls-2" cx="87.96" cy="38.47" r="10.57"/>
      </g>
      <g>
        <rect class="cls-1" x="10.33" y="79.31" width="43.3" height="10.09"/>
        <circle class="cls-2" cx="64.93" cy="84.36" r="10.89"/>
      </g>
    </g>
  </g>
</svg>